<svg xmlns="http://www.w3.org/2000/svg" viewBox="0 0 1160 286"><g fill="#09F" fill-rule="evenodd"><path d="M0 54h1160v224a8 8 0 0 1-8 8H8a8 8 0 0 1-8-8V54z" opacity=".04"/><path d="M4 0h1152a4 4 0 0 1 4 4v50H0V4a4 4 0 0 1 4-4z" opacity=".16"/><path fill-rule="nonzero" d="M974 226a4 4 0 0 1 4 4v36a4 4 0 0 1-4 4H842a4 4 0 0 1-4-4v-36a4 4 0 0 1 4-4h132zm0 3H842a1 1 0 0 0-1 .88V266a1 1 0 0 0 .88 1H974a1 1 0 0 0 1-.88V230a1 1 0 0 0-1-1zm-492-3a4 4 0 0 1 4 4v36a4 4 0 0 1-4 4H350a4 4 0 0 1-4-4v-36a4 4 0 0 1 4-4h132zm0 3H350a1 1 0 0 0-1 .88V266a1 1 0 0 0 .88 1H482a1 1 0 0 0 1-.88V230a1 1 0 0 0-1-1zm328-3a4 4 0 0 1 4 4v36a4 4 0 0 1-4 4H678a4 4 0 0 1-4-4v-36a4 4 0 0 1 4-4h132zm0 3H678a1 1 0 0 0-1 .88V266a1 1 0 0 0 .88 1H810a1 1 0 0 0 1-.88V230a1 1 0 0 0-1-1zm-492-3a4 4 0 0 1 4 4v36a4 4 0 0 1-4 4H186a4 4 0 0 1-4-4v-36a4 4 0 0 1 4-4h132zm0 3H186a1 1 0 0 0-1 .88V266a1 1 0 0 0 .88 1H318a1 1 0 0 0 1-.88V230a1 1 0 0 0-1-1zm328-3a4 4 0 0 1 4 4v36a4 4 0 0 1-4 4H514a4 4 0 0 1-4-4v-36a4 4 0 0 1 4-4h132zm0 3H514a1 1 0 0 0-1 .88V266a1 1 0 0 0 .88 1H646a1 1 0 0 0 1-.88V230a1 1 0 0 0-1-1zm-492-3a4 4 0 0 1 4 4v36a4 4 0 0 1-4 4H22a4 4 0 0 1-4-4v-36a4 4 0 0 1 4-4h132zm0 3H22a1 1 0 0 0-1 .88V266a1 1 0 0 0 .88 1H154a1 1 0 0 0 1-.88V230a1 1 0 0 0-1-1zm984-3a4 4 0 0 1 4 4v36a4 4 0 0 1-4 4h-132a4 4 0 0 1-4-4v-36a4 4 0 0 1 4-4h132zm0 3h-132a1 1 0 0 0-1 .88V266a1 1 0 0 0 .88 1H1138a1 1 0 0 0 1-.88V230a1 1 0 0 0-1-1zm-984-55a4 4 0 0 1 4 4v36a4 4 0 0 1-4 4H22a4 4 0 0 1-4-4v-36a4 4 0 0 1 4-4h132zm0 3H22a1 1 0 0 0-1 .88V214a1 1 0 0 0 .88 1H154a1 1 0 0 0 1-.88V178a1 1 0 0 0-1-1zm164-3a4 4 0 0 1 4 4v36a4 4 0 0 1-4 4H186a4 4 0 0 1-4-4v-36a4 4 0 0 1 4-4h132zm0 3H186a1 1 0 0 0-1 .88V214a1 1 0 0 0 .88 1H318a1 1 0 0 0 1-.88V178a1 1 0 0 0-1-1zm492-3a4 4 0 0 1 4 4v36a4 4 0 0 1-4 4H678a4 4 0 0 1-4-4v-36a4 4 0 0 1 4-4h132zm0 3H678a1 1 0 0 0-1 .88V214a1 1 0 0 0 .88 1H810a1 1 0 0 0 1-.88V178a1 1 0 0 0-1-1zm-328-3a4 4 0 0 1 4 4v36a4 4 0 0 1-4 4H350a4 4 0 0 1-4-4v-36a4 4 0 0 1 4-4h132zm0 3H350a1 1 0 0 0-1 .88V214a1 1 0 0 0 .88 1H482a1 1 0 0 0 1-.88V178a1 1 0 0 0-1-1zm492-3a4 4 0 0 1 4 4v36a4 4 0 0 1-4 4H842a4 4 0 0 1-4-4v-36a4 4 0 0 1 4-4h132zm0 3H842a1 1 0 0 0-1 .88V214a1 1 0 0 0 .88 1H974a1 1 0 0 0 1-.88V178a1 1 0 0 0-1-1zm164-3a4 4 0 0 1 4 4v36a4 4 0 0 1-4 4h-132a4 4 0 0 1-4-4v-36a4 4 0 0 1 4-4h132zm0 3h-132a1 1 0 0 0-1 .88V214a1 1 0 0 0 .88 1H1138a1 1 0 0 0 1-.88V178a1 1 0 0 0-1-1zm-328-55a4 4 0 0 1 4 4v36a4 4 0 0 1-4 4H678a4 4 0 0 1-4-4v-36a4 4 0 0 1 4-4h132zm0 3H678a1 1 0 0 0-1 .88V162a1 1 0 0 0 .88 1H810a1 1 0 0 0 1-.88V126a1 1 0 0 0-1-1zm328-3a4 4 0 0 1 4 4v36a4 4 0 0 1-4 4h-132a4 4 0 0 1-4-4v-36a4 4 0 0 1 4-4h132zm0 3h-132a1 1 0 0 0-1 .88V162a1 1 0 0 0 .88 1H1138a1 1 0 0 0 1-.88V126a1 1 0 0 0-1-1zm-164-3a4 4 0 0 1 4 4v36a4 4 0 0 1-4 4H842a4 4 0 0 1-4-4v-36a4 4 0 0 1 4-4h132zm0 3H842a1 1 0 0 0-1 .88V162a1 1 0 0 0 .88 1H974a1 1 0 0 0 1-.88V126a1 1 0 0 0-1-1zm-492-3a4 4 0 0 1 4 4v36a4 4 0 0 1-4 4H350a4 4 0 0 1-4-4v-36a4 4 0 0 1 4-4h132zm0 3H350a1 1 0 0 0-1 .88V162a1 1 0 0 0 .88 1H482a1 1 0 0 0 1-.88V126a1 1 0 0 0-1-1zm-164-3a4 4 0 0 1 4 4v36a4 4 0 0 1-4 4H186a4 4 0 0 1-4-4v-36a4 4 0 0 1 4-4h132zm0 3H186a1 1 0 0 0-1 .88V162a1 1 0 0 0 .88 1H318a1 1 0 0 0 1-.88V126a1 1 0 0 0-1-1zm-164-3a4 4 0 0 1 4 4v36a4 4 0 0 1-4 4H22a4 4 0 0 1-4-4v-36a4 4 0 0 1 4-4h132zm0 3H22a1 1 0 0 0-1 .88V162a1 1 0 0 0 .88 1H154a1 1 0 0 0 1-.88V126a1 1 0 0 0-1-1zm0-55a4 4 0 0 1 4 4v36a4 4 0 0 1-4 4H22a4 4 0 0 1-4-4V74a4 4 0 0 1 4-4h132zm0 3H22a1 1 0 0 0-1 .88V110a1 1 0 0 0 .88 1H154a1 1 0 0 0 1-.88V74a1 1 0 0 0-1-1zm492-3a4 4 0 0 1 4 4v36a4 4 0 0 1-4 4H514a4 4 0 0 1-4-4V74a4 4 0 0 1 4-4h132zm0 3H514a1 1 0 0 0-1 .88V110a1 1 0 0 0 .88 1H646a1 1 0 0 0 1-.88V74a1 1 0 0 0-1-1zm-328-3a4 4 0 0 1 4 4v36a4 4 0 0 1-4 4H186a4 4 0 0 1-4-4V74a4 4 0 0 1 4-4h132zm0 3H186a1 1 0 0 0-1 .88V110a1 1 0 0 0 .88 1H318a1 1 0 0 0 1-.88V74a1 1 0 0 0-1-1zm492-3a4 4 0 0 1 4 4v36a4 4 0 0 1-4 4H678a4 4 0 0 1-4-4V74a4 4 0 0 1 4-4h132zm0 3H678a1 1 0 0 0-1 .88V110a1 1 0 0 0 .88 1H810a1 1 0 0 0 1-.88V74a1 1 0 0 0-1-1zm-328-3a4 4 0 0 1 4 4v36a4 4 0 0 1-4 4H350a4 4 0 0 1-4-4V74a4 4 0 0 1 4-4h132zm0 3H350a1 1 0 0 0-1 .88V110a1 1 0 0 0 .88 1H482a1 1 0 0 0 1-.88V74a1 1 0 0 0-1-1zm492-3a4 4 0 0 1 4 4v36a4 4 0 0 1-4 4H842a4 4 0 0 1-4-4V74a4 4 0 0 1 4-4h132zm0 3H842a1 1 0 0 0-1 .88V110a1 1 0 0 0 .88 1H974a1 1 0 0 0 1-.88V74a1 1 0 0 0-1-1zm164-3a4 4 0 0 1 4 4v36a4 4 0 0 1-4 4h-132a4 4 0 0 1-4-4V74a4 4 0 0 1 4-4h132zm0 3h-132a1 1 0 0 0-1 .88V110a1 1 0 0 0 .88 1H1138a1 1 0 0 0 1-.88V74a1 1 0 0 0-1-1z" opacity=".16"/></g></svg>