<svg xmlns="http://www.w3.org/2000/svg" viewBox="0 0 550 286">
  <g fill="#09F" fill-rule="evenodd">
    <path d="M 0 54 L 550 54 L 550 278 C 550 282.418 548.301 286 546.207 286 L 3.793 286 C 1.698 286 0 282.418 0 278 L 0 54 Z" opacity=".04"/>
    <path d="M 1.898 0 L 548.103 0 C 549.152 0 550 1.791 550 4 L 550 54 L 0 54 L 0 4 C 0 1.791 0.848 0 1.898 0 Z" opacity=".16"/>
    <path
      fill-rule="nonzero"
      d="M 176.58 226 C 178.798 226 180.597 227.791 180.597 230 L 180.597 266 C 180.597 268.209 178.798 270 176.58 270 L 44.016 270 C 41.799 270 40 268.209 40 266 L 40 230 C 40 227.791 41.799 226 44.016 226 L 176.58 226 Z M 176.58 229 L 44.016 229 C 43.505 228.996 43.073 229.375 43.011 229.88 L 43.011 266 C 43.007 266.509 43.389 266.939 43.896 267 L 176.58 267 C 177.092 267.004 177.523 266.625 177.585 266.12 L 177.585 230 C 177.585 229.448 177.135 229 176.58 229 Z M 505.983 226 C 508.201 226 510 227.791 510 230 L 510 266 C 510 268.209 508.201 270 505.983 270 L 373.419 270 C 371.201 270 369.402 268.209 369.402 266 L 369.402 230 C 369.402 227.791 371.201 226 373.419 226 L 505.983 226 Z M 505.983 229 L 373.419 229 C 372.907 228.996 372.476 229.375 372.414 229.88 L 372.414 266 C 372.41 266.509 372.791 266.939 373.298 267 L 505.983 267 C 506.494 267.004 506.926 266.625 506.988 266.12 L 506.988 230 C 506.988 229.448 506.537 229 505.983 229 Z M 341.281 226 C 343.5 226 345.299 227.791 345.299 230 L 345.299 266 C 345.299 268.209 343.5 270 341.281 270 L 208.718 270 C 206.499 270 204.7 268.209 204.7 266 L 204.7 230 C 204.7 227.791 206.499 226 208.718 226 L 341.281 226 Z M 341.281 229 L 208.718 229 C 208.207 228.996 207.775 229.375 207.713 229.88 L 207.713 266 C 207.709 266.509 208.089 266.939 208.597 267 L 341.281 267 C 341.792 267.004 342.225 266.625 342.286 266.12 L 342.286 230 C 342.286 229.448 341.836 229 341.281 229 Z M 505.983 174 C 508.201 174 510 175.791 510 178 L 510 214 C 510 216.209 508.201 218 505.983 218 L 373.419 218 C 371.201 218 369.402 216.209 369.402 214 L 369.402 178 C 369.402 175.791 371.201 174 373.419 174 L 505.983 174 Z M 505.983 177 L 373.419 177 C 372.907 176.996 372.476 177.375 372.414 177.88 L 372.414 214 C 372.41 214.509 372.791 214.939 373.298 215 L 505.983 215 C 506.494 215.004 506.926 214.625 506.988 214.12 L 506.988 178 C 506.988 177.448 506.537 177 505.983 177 Z M 176.58 174 C 178.798 174 180.597 175.791 180.597 178 L 180.597 214 C 180.597 216.209 178.798 218 176.58 218 L 44.016 218 C 41.799 218 40 216.209 40 214 L 40 178 C 40 175.791 41.799 174 44.016 174 L 176.58 174 Z M 176.58 177 L 44.016 177 C 43.505 176.996 43.073 177.375 43.011 177.88 L 43.011 214 C 43.007 214.509 43.389 214.939 43.896 215 L 176.58 215 C 177.092 215.004 177.523 214.625 177.585 214.12 L 177.585 178 C 177.585 177.448 177.135 177 176.58 177 Z M 505.983 122 C 508.201 122 510 123.791 510 126 L 510 162 C 510 164.209 508.201 166 505.983 166 L 373.419 166 C 371.201 166 369.402 164.209 369.402 162 L 369.402 126 C 369.402 123.791 371.201 122 373.419 122 L 505.983 122 Z M 505.983 125 L 373.419 125 C 372.907 124.996 372.476 125.375 372.414 125.88 L 372.414 162 C 372.41 162.509 372.791 162.939 373.298 163 L 505.983 163 C 506.494 163.004 506.926 162.625 506.988 162.12 L 506.988 126 C 506.988 125.448 506.537 125 505.983 125 Z M 176.58 122 C 178.798 122 180.597 123.791 180.597 126 L 180.597 162 C 180.597 164.209 178.798 166 176.58 166 L 44.016 166 C 41.799 166 40 164.209 40 162 L 40 126 C 40 123.791 41.799 122 44.016 122 L 176.58 122 Z M 176.58 125 L 44.016 125 C 43.505 124.996 43.073 125.375 43.011 125.88 L 43.011 162 C 43.007 162.509 43.389 162.939 43.896 163 L 176.58 163 C 177.092 163.004 177.523 162.625 177.585 162.12 L 177.585 126 C 177.585 125.448 177.135 125 176.58 125 Z M 341.281 70 C 343.5 70 345.299 71.791 345.299 74 L 345.299 110 C 345.299 112.209 343.5 114 341.281 114 L 208.718 114 C 206.499 114 204.7 112.209 204.7 110 L 204.7 74 C 204.7 71.791 206.499 70 208.718 70 L 341.281 70 Z M 341.281 73 L 208.718 73 C 208.207 72.996 207.775 73.375 207.713 73.88 L 207.713 110 C 207.709 110.509 208.089 110.939 208.597 111 L 341.281 111 C 341.792 111.004 342.225 110.625 342.286 110.12 L 342.286 74 C 342.286 73.448 341.836 73 341.281 73 Z M 505.983 70 C 508.201 70 510 71.791 510 74 L 510 110 C 510 112.209 508.201 114 505.983 114 L 373.419 114 C 371.201 114 369.402 112.209 369.402 110 L 369.402 74 C 369.402 71.791 371.201 70 373.419 70 L 505.983 70 Z M 505.983 73 L 373.419 73 C 372.907 72.996 372.476 73.375 372.414 73.88 L 372.414 110 C 372.41 110.509 372.791 110.939 373.298 111 L 505.983 111 C 506.494 111.004 506.926 110.625 506.988 110.12 L 506.988 74 C 506.988 73.448 506.537 73 505.983 73 Z M 176.58 70 C 178.798 70 180.597 71.791 180.597 74 L 180.597 110 C 180.597 112.209 178.798 114 176.58 114 L 44.016 114 C 41.799 114 40 112.209 40 110 L 40 74 C 40 71.791 41.799 70 44.016 70 L 176.58 70 Z M 176.58 73 L 44.016 73 C 43.505 72.996 43.073 73.375 43.011 73.88 L 43.011 110 C 43.007 110.509 43.389 110.939 43.896 111 L 176.58 111 C 177.092 111.004 177.523 110.625 177.585 110.12 L 177.585 74 C 177.585 73.448 177.135 73 176.58 73 Z" opacity=".16">
    </path>

    <svg fill="#000" xmlns="http://www.w3.org/2000/svg" version="1.1" xmlns:xlink="http://www.w3.org/1999/xlink" viewBox="0 -42 35 100" width="100%" height="100%" preserveAspectRatio="xMidYMid meet">
      <path d="M25,7v3.6A10.5,10.5,0,0,0,5.5,16h2a8.49,8.49,0,0,1,16-4H20v2h7V7Z">
        <animateTransform attributeType="xml"
          attributeName="transform"
          type="rotate"
          from="0 16 16"
          to="360 16 16"
          dur="2s"
          repeatCount="indefinite"/>
      </path>
      <path d="M24.5,16a8.49,8.49,0,0,1-16,4H12V18H5v7H7v-3.6A10.5,10.5,0,0,0,26.5,16Z">
        <animateTransform
          attributeType="xml"
          attributeName="transform"
          type="rotate"
          from="0 16 16"
          to="360 16 16"
          dur="2s"
          repeatCount="indefinite"/>
      </path>
    </svg>
  </g>
</svg>
