<svg xmlns="http://www.w3.org/2000/svg" viewBox="0 0 790 286">
  <g fill="#09F" fill-rule="evenodd">
    <path d="M 0 54 L 789 54 L 789 278 C 789 282.418 786.563 286 783.558 286 L 5.441 286 C 2.435 286 0 282.418 0 278 L 0 54 Z" opacity=".04"/>
    <path d="M 2.722 0 L 786.279 0 C 787.784 0 789 1.791 789 4 L 789 54 L 0 54 L 0 4 C 0 1.791 1.217 0 2.722 0 Z" opacity=".16"/>
    <path
      fill-rule="nonzero"
      d="M 774.14 226 C 776.272 226 778 227.791 778 230 L 778 266 C 778 268.209 776.272 270 774.14 270 L 646.784 270 C 644.653 270 642.925 268.209 642.925 266 L 642.925 230 C 642.925 227.791 644.653 226 646.784 226 L 774.14 226 Z M 774.14 229 L 646.784 229 C 646.293 228.996 645.878 229.375 645.819 229.88 L 645.819 266 C 645.815 266.509 646.181 266.939 646.668 267 L 774.14 267 C 774.632 267.004 775.047 266.625 775.105 266.12 L 775.105 230 C 775.105 229.448 774.673 229 774.14 229 Z M 299.447 226 C 301.578 226 303.306 227.791 303.306 230 L 303.306 266 C 303.306 268.209 301.578 270 299.447 270 L 172.09 270 C 169.96 270 168.232 268.209 168.232 266 L 168.232 230 C 168.232 227.791 169.96 226 172.09 226 L 299.447 226 Z M 299.447 229 L 172.09 229 C 171.599 228.996 171.184 229.375 171.125 229.88 L 171.125 266 C 171.121 266.509 171.488 266.939 171.975 267 L 299.447 267 C 299.939 267.004 300.353 266.625 300.412 266.12 L 300.412 230 C 300.412 229.448 299.98 229 299.447 229 Z M 615.91 226 C 618.041 226 619.769 227.791 619.769 230 L 619.769 266 C 619.769 268.209 618.041 270 615.91 270 L 488.553 270 C 486.422 270 484.694 268.209 484.694 266 L 484.694 230 C 484.694 227.791 486.422 226 488.553 226 L 615.91 226 Z M 615.91 229 L 488.553 229 C 488.061 228.996 487.647 229.375 487.588 229.88 L 487.588 266 C 487.584 266.509 487.95 266.939 488.437 267 L 615.91 267 C 616.401 267.004 616.816 266.625 616.875 266.12 L 616.875 230 C 616.875 229.448 616.442 229 615.91 229 Z M 141.216 226 C 143.347 226 145.075 227.791 145.075 230 L 145.075 266 C 145.075 268.209 143.347 270 141.216 270 L 13.86 270 C 11.728 270 10 268.209 10 266 L 10 230 C 10 227.791 11.728 226 13.86 226 L 141.216 226 Z M 141.216 229 L 13.86 229 C 13.368 228.996 12.953 229.375 12.895 229.88 L 12.895 266 C 12.891 266.509 13.256 266.939 13.744 267 L 141.216 267 C 141.707 267.004 142.122 266.625 142.181 266.12 L 142.181 230 C 142.181 229.448 141.748 229 141.216 229 Z M 457.678 226 C 459.81 226 461.538 227.791 461.538 230 L 461.538 266 C 461.538 268.209 459.81 270 457.678 270 L 330.322 270 C 328.19 270 326.462 268.209 326.462 266 L 326.462 230 C 326.462 227.791 328.19 226 330.322 226 L 457.678 226 Z M 457.678 229 L 330.322 229 C 329.831 228.996 329.416 229.375 329.357 229.88 L 329.357 266 C 329.353 266.509 329.718 266.939 330.206 267 L 457.678 267 C 458.169 267.004 458.585 266.625 458.643 266.12 L 458.643 230 C 458.643 229.448 458.211 229 457.678 229 Z M 141.216 174 C 143.347 174 145.075 175.791 145.075 178 L 145.075 214 C 145.075 216.209 143.347 218 141.216 218 L 13.86 218 C 11.728 218 10 216.209 10 214 L 10 178 C 10 175.791 11.728 174 13.86 174 L 141.216 174 Z M 141.216 177 L 13.86 177 C 13.368 176.996 12.953 177.375 12.895 177.88 L 12.895 214 C 12.891 214.509 13.256 214.939 13.744 215 L 141.216 215 C 141.707 215.004 142.122 214.625 142.181 214.12 L 142.181 178 C 142.181 177.448 141.748 177 141.216 177 Z M 615.91 174 C 618.041 174 619.769 175.791 619.769 178 L 619.769 214 C 619.769 216.209 618.041 218 615.91 218 L 488.553 218 C 486.422 218 484.694 216.209 484.694 214 L 484.694 178 C 484.694 175.791 486.422 174 488.553 174 L 615.91 174 Z M 615.91 177 L 488.553 177 C 488.061 176.996 487.647 177.375 487.588 177.88 L 487.588 214 C 487.584 214.509 487.95 214.939 488.437 215 L 615.91 215 C 616.401 215.004 616.816 214.625 616.875 214.12 L 616.875 178 C 616.875 177.448 616.442 177 615.91 177 Z M 299.447 174 C 301.578 174 303.306 175.791 303.306 178 L 303.306 214 C 303.306 216.209 301.578 218 299.447 218 L 172.09 218 C 169.96 218 168.232 216.209 168.232 214 L 168.232 178 C 168.232 175.791 169.96 174 172.09 174 L 299.447 174 Z M 299.447 177 L 172.09 177 C 171.599 176.996 171.184 177.375 171.125 177.88 L 171.125 214 C 171.121 214.509 171.488 214.939 171.975 215 L 299.447 215 C 299.939 215.004 300.353 214.625 300.412 214.12 L 300.412 178 C 300.412 177.448 299.98 177 299.447 177 Z M 774.14 174 C 776.272 174 778 175.791 778 178 L 778 214 C 778 216.209 776.272 218 774.14 218 L 646.784 218 C 644.653 218 642.925 216.209 642.925 214 L 642.925 178 C 642.925 175.791 644.653 174 646.784 174 L 774.14 174 Z M 774.14 177 L 646.784 177 C 646.293 176.996 645.878 177.375 645.819 177.88 L 645.819 214 C 645.815 214.509 646.181 214.939 646.668 215 L 774.14 215 C 774.632 215.004 775.047 214.625 775.105 214.12 L 775.105 178 C 775.105 177.448 774.673 177 774.14 177 Z M 615.91 122 C 618.041 122 619.769 123.791 619.769 126 L 619.769 162 C 619.769 164.209 618.041 166 615.91 166 L 488.553 166 C 486.422 166 484.694 164.209 484.694 162 L 484.694 126 C 484.694 123.791 486.422 122 488.553 122 L 615.91 122 Z M 615.91 125 L 488.553 125 C 488.061 124.996 487.647 125.375 487.588 125.88 L 487.588 162 C 487.584 162.509 487.95 162.939 488.437 163 L 615.91 163 C 616.401 163.004 616.816 162.625 616.875 162.12 L 616.875 126 C 616.875 125.448 616.442 125 615.91 125 Z M 774.14 122 C 776.272 122 778 123.791 778 126 L 778 162 C 778 164.209 776.272 166 774.14 166 L 646.784 166 C 644.653 166 642.925 164.209 642.925 162 L 642.925 126 C 642.925 123.791 644.653 122 646.784 122 L 774.14 122 Z M 774.14 125 L 646.784 125 C 646.293 124.996 645.878 125.375 645.819 125.88 L 645.819 162 C 645.815 162.509 646.181 162.939 646.668 163 L 774.14 163 C 774.632 163.004 775.047 162.625 775.105 162.12 L 775.105 126 C 775.105 125.448 774.673 125 774.14 125 Z M 299.447 122 C 301.578 122 303.306 123.791 303.306 126 L 303.306 162 C 303.306 164.209 301.578 166 299.447 166 L 172.09 166 C 169.96 166 168.232 164.209 168.232 162 L 168.232 126 C 168.232 123.791 169.96 122 172.09 122 L 299.447 122 Z M 299.447 125 L 172.09 125 C 171.599 124.996 171.184 125.375 171.125 125.88 L 171.125 162 C 171.121 162.509 171.488 162.939 171.975 163 L 299.447 163 C 299.939 163.004 300.353 162.625 300.412 162.12 L 300.412 126 C 300.412 125.448 299.98 125 299.447 125 Z M 141.216 122 C 143.347 122 145.075 123.791 145.075 126 L 145.075 162 C 145.075 164.209 143.347 166 141.216 166 L 13.86 166 C 11.728 166 10 164.209 10 162 L 10 126 C 10 123.791 11.728 122 13.86 122 L 141.216 122 Z M 141.216 125 L 13.86 125 C 13.368 124.996 12.953 125.375 12.895 125.88 L 12.895 162 C 12.891 162.509 13.256 162.939 13.744 163 L 141.216 163 C 141.707 163.004 142.122 162.625 142.181 162.12 L 142.181 126 C 142.181 125.448 141.748 125 141.216 125 Z M 457.678 70 C 459.81 70 461.538 71.791 461.538 74 L 461.538 110 C 461.538 112.209 459.81 114 457.678 114 L 330.322 114 C 328.19 114 326.462 112.209 326.462 110 L 326.462 74 C 326.462 71.791 328.19 70 330.322 70 L 457.678 70 Z M 457.678 73 L 330.322 73 C 329.831 72.996 329.416 73.375 329.357 73.88 L 329.357 110 C 329.353 110.509 329.718 110.939 330.206 111 L 457.678 111 C 458.169 111.004 458.585 110.625 458.643 110.12 L 458.643 74 C 458.643 73.448 458.211 73 457.678 73 Z M 141.216 70 C 143.347 70 145.075 71.791 145.075 74 L 145.075 110 C 145.075 112.209 143.347 114 141.216 114 L 13.86 114 C 11.728 114 10 112.209 10 110 L 10 74 C 10 71.791 11.728 70 13.86 70 L 141.216 70 Z M 141.216 73 L 13.86 73 C 13.368 72.996 12.953 73.375 12.895 73.88 L 12.895 110 C 12.891 110.509 13.256 110.939 13.744 111 L 141.216 111 C 141.707 111.004 142.122 110.625 142.181 110.12 L 142.181 74 C 142.181 73.448 141.748 73 141.216 73 Z M 615.91 70 C 618.041 70 619.769 71.791 619.769 74 L 619.769 110 C 619.769 112.209 618.041 114 615.91 114 L 488.553 114 C 486.422 114 484.694 112.209 484.694 110 L 484.694 74 C 484.694 71.791 486.422 70 488.553 70 L 615.91 70 Z M 615.91 73 L 488.553 73 C 488.061 72.996 487.647 73.375 487.588 73.88 L 487.588 110 C 487.584 110.509 487.95 110.939 488.437 111 L 615.91 111 C 616.401 111.004 616.816 110.625 616.875 110.12 L 616.875 74 C 616.875 73.448 616.442 73 615.91 73 Z M 299.447 70 C 301.578 70 303.306 71.791 303.306 74 L 303.306 110 C 303.306 112.209 301.578 114 299.447 114 L 172.09 114 C 169.96 114 168.232 112.209 168.232 110 L 168.232 74 C 168.232 71.791 169.96 70 172.09 70 L 299.447 70 Z M 299.447 73 L 172.09 73 C 171.599 72.996 171.184 73.375 171.125 73.88 L 171.125 110 C 171.121 110.509 171.488 110.939 171.975 111 L 299.447 111 C 299.939 111.004 300.353 110.625 300.412 110.12 L 300.412 74 C 300.412 73.448 299.98 73 299.447 73 Z M 774.14 70 C 776.272 70 778 71.791 778 74 L 778 110 C 778 112.209 776.272 114 774.14 114 L 646.784 114 C 644.653 114 642.925 112.209 642.925 110 L 642.925 74 C 642.925 71.791 644.653 70 646.784 70 L 774.14 70 Z M 774.14 73 L 646.784 73 C 646.293 72.996 645.878 73.375 645.819 73.88 L 645.819 110 C 645.815 110.509 646.181 110.939 646.668 111 L 774.14 111 C 774.632 111.004 775.047 110.625 775.105 110.12 L 775.105 74 C 775.105 73.448 774.673 73 774.14 73 Z" opacity=".16">
    </path>

    <svg fill="#000" xmlns="http://www.w3.org/2000/svg" version="1.1" xmlns:xlink="http://www.w3.org/1999/xlink" viewBox="0 -42 35 100" width="100%" height="100%" preserveAspectRatio="xMidYMid meet">
      <path d="M25,7v3.6A10.5,10.5,0,0,0,5.5,16h2a8.49,8.49,0,0,1,16-4H20v2h7V7Z">
        <animateTransform attributeType="xml"
          attributeName="transform"
          type="rotate"
          from="0 16 16"
          to="360 16 16"
          dur="2s"
          repeatCount="indefinite"/>
      </path>
      <path d="M24.5,16a8.49,8.49,0,0,1-16,4H12V18H5v7H7v-3.6A10.5,10.5,0,0,0,26.5,16Z">
        <animateTransform
          attributeType="xml"
          attributeName="transform"
          type="rotate"
          from="0 16 16"
          to="360 16 16"
          dur="2s"
          repeatCount="indefinite"/>
      </path>
    </svg>
  </g>
</svg>
